<?xml version="1.0" encoding="UTF-8"?>
<svg id="Layer_1" xmlns="http://www.w3.org/2000/svg" version="1.1" viewBox="0 0 1271.5 261.2">
  <!-- Generator: Adobe Illustrator 29.3.1, SVG Export Plug-In . SVG Version: 2.1.0 Build 151)  -->
  <defs>
    <style>
      .st0 {
        fill: #08c0c1;
      }

      .st1 {
        fill: #e0dede;
      }
    </style>
  </defs>
  <g>
    <path class="st0" d="M26.9,16.2l183.9-.2c13,1.2,18.8,10.6,19.6,22.8,1.3,17.7.6,41.2,0,59.3-1.8,55.3-21.8,98.4-68.9,128.6-8.2,5.3-33.8,19.2-42.7,18.3-10.3-1-34.3-14.3-43.3-20.4C34.2,197,11.8,155,9.7,105.2c-.9-20.4-1.4-48.2,0-68.3.8-10.7,6.7-18.2,17.2-20.7h0ZM206,39.9H33.5c1.3,33.2-3.7,68.4,6,100.5,11.4,37.8,44.1,67.2,80.6,80.2,48.3-17,82.9-59.1,85.9-111V39.9h0Z"/>
    <path class="st0" d="M161.4,78.6c11.4-2.3,19.1,9.1,12.9,18.7l-63.3,63.5c-6.3,5.2-11.1,5.3-17.7.3-4.4-3.4-26.8-25.9-28.7-29.8-3.9-8.1,1.7-17.6,10.9-17.4,9.2.3,18.9,16.6,26.4,21.2l1-.3,53.4-53.5c1.2-.9,3.6-2.5,5-2.7h0Z"/>
  </g>
  <g>
    <path class="st1" d="M318,55.2h25.3l39.1,120.7h-22.8l-18.2-64.2c-3.6-12.7-7.5-26.4-10.8-39.8h-.7c-3.4,13.4-7,27.1-10.6,39.8l-18.4,64.2h-22l39.1-120.7ZM302.1,126.3h56.6v17h-56.6v-17Z"/>
    <path class="st1" d="M397.4,191.8c0-7.3,5-14,14.5-19.1v-.7c-4.9-2.9-9.2-7.5-9.2-15.2s4.1-12.5,10.8-17v-.7c-6.4-4.5-11.6-12.7-11.6-23.4,0-20.8,17.4-32.7,37.3-32.7s10,.7,14.2,2.2h37.2v16.2h-20.8c3,3.5,5.7,9.1,5.7,15,0,20.1-15.9,30.8-36.3,30.8s-9.1-.8-13.9-2.6c-3.6,2.4-5.5,4.9-5.5,8.5,0,5.9,5.8,8.6,17.1,8.6h18.5c23.6,0,35.7,6.3,35.7,22.1s-20.3,32.2-52.3,32.2-41.4-8-41.4-24.2ZM470.6,187.3c0-7.1-6.2-8.9-18.3-8.9h-14.5c-5.9,0-10.2-.4-13.8-1.3-6.5,3.7-8.9,7.7-8.9,11.9,0,8.1,9.5,12.8,26.2,12.8s29.2-6.7,29.2-14.5ZM456.4,115.6c0-11.1-7.7-17.9-17.2-17.9s-17.2,6.9-17.2,17.9,7.8,18.2,17.2,18.2,17.2-6.7,17.2-18.2Z"/>
    <path class="st1" d="M508.1,130.4c0-29.6,22.5-47.4,46.7-47.4s42.1,18,42.1,43-.6,8.4-.9,10.7h-72.6v-15.1h58.8l-4.1,4.7c0-17.9-8.4-27-22.6-27s-26.5,10.8-26.5,31,12.7,31.1,31.6,31.1,17.3-2.8,25.4-7.4l7.3,13.2c-9.7,6.3-22.2,10.7-35.5,10.7-27.8,0-49.6-17.5-49.6-47.7Z"/>
    <path class="st1" d="M622.8,85.2h17.4l1.6,13.6h.7c8.7-8.8,18.9-15.9,32.7-15.9,21,0,30.4,13.4,30.4,36.7v56.2h-21.4v-53.4c0-14.5-4.7-21.2-16.9-21.2s-15,4.3-23.3,12.7v61.8h-21.4v-90.7Z"/>
    <path class="st1" d="M753.4,139.4v-37.3h-24.3v-15.9l25.1-1,2.8-28.4h17.7v28.4h41.2v16.9h-41.2v37.2c0,15,5.6,21.7,20.9,21.7s13.8-1.5,19.7-3.7l4.1,15.5c-8.1,2.7-17.3,5.2-29,5.2-27.7,0-37.1-15.6-37.1-38.7Z"/>
    <path class="st1" d="M838,115.8c0-39.7,23.4-62.9,54.7-62.9s27.1,7.5,34.3,15l-12,13.4c-5.5-5.6-11.8-9.7-22.3-9.7-19.2,0-32.5,16.5-32.5,43.6s11.6,44.2,32.8,44.2,12.7-1.9,16.2-5.3v-26.1h-20.7v-17.5h40.2v53.3c-7.8,7.6-21.4,14.3-36.9,14.3-30.6,0-53.9-22.2-53.9-62.2Z"/>
    <path class="st1" d="M952.9,151.5c0-20.3,17.9-30.5,62.7-33.6-.8-10.2-6.8-17.8-21.6-17.8s-20.3,4.5-29.6,9.6l-7.9-14.1c11-6.6,25.9-12.7,41.5-12.7,25.2,0,39,14,39,39.2v53.7h-17.5l-1.6-11.2h-.6c-9.5,7.3-21.7,13.5-33.8,13.5-17.7,0-30.4-10.8-30.4-26.6ZM1015.5,150.3v-19.1c-32.6,2.1-42,8.8-42,18.6s7.1,11.4,16,11.4,17.5-4.3,25.9-11Z"/>
    <path class="st1" d="M1085.7,139.4v-37.3h-24.3v-15.9l25.2-1,2.8-28.4h17.7v28.4h41.2v16.9h-41.2v37.2c0,15,5.6,21.7,20.9,21.7s13.8-1.5,19.7-3.7l4.1,15.5c-8.1,2.7-17.3,5.2-29,5.2-27.7,0-37.1-15.6-37.1-38.7Z"/>
    <path class="st1" d="M1172.7,130.4c0-29.6,22.5-47.4,46.7-47.4s42.1,18,42.1,43-.6,8.4-.9,10.7h-72.6v-15.1h58.8l-4.1,4.7c0-17.9-8.4-27-22.6-27s-26.5,10.8-26.5,31,12.7,31.1,31.6,31.1,17.3-2.8,25.4-7.4l7.3,13.2c-9.7,6.3-22.2,10.7-35.5,10.7-27.8,0-49.6-17.5-49.6-47.7Z"/>
  </g>
</svg>